<?xml version="1.0" encoding="utf-8"?>
<!-- Svg Vector Icons : http://www.onlinewebfonts.com/icon -->
<!DOCTYPE svg PUBLIC "-//W3C//DTD SVG 1.1//EN" "http://www.w3.org/Graphics/SVG/1.1/DTD/svg11.dtd">
<svg version="1.1" xmlns="http://www.w3.org/2000/svg" xmlns:xlink="http://www.w3.org/1999/xlink" x="0px" y="0px" viewBox="0 0 256 256" enable-background="new 0 0 256 256" xml:space="preserve">
<metadata> Svg Vector Icons : http://www.onlinewebfonts.com/icon </metadata>
<g><g><path fill="#000000" d="M70.7,185c0,6.2,5.3,9.3,15.8,9.3c9.2,0,13.8-3.2,13.8-9.7c0-6.1-5-9.2-15.1-9.2C75.6,175.5,70.7,178.7,70.7,185z M206.7,10H49.3C27.7,10,10,27.7,10,49.3v157.3c0,21.7,17.7,39.3,39.3,39.3h157.3c21.7,0,39.3-17.7,39.3-39.3V49.3C246,27.7,228.3,10,206.7,10z M119.6,104.3c-1.7,0.6-4.1,1.3-7.2,2c1,2.8,1.4,5.3,1.4,7.7c0,7.7-2.3,14.4-6.9,20.1c-4.6,5.7-10.6,9.1-17.9,10.2c-4.8,0.7-7.2,3.3-7.2,7.7c0,1.6,0.8,3.1,2.3,4.7c2,2.3,5,3.7,9,4.3c17.1,2.6,25.7,9.8,25.7,21.4c0,18.6-11.1,27.9-33.3,27.9c-9.1,0-16.6-1.6-22.5-4.9c-7.4-4.1-11.1-10.5-11.1-19.2c0-10.1,5.6-17,16.7-20.7V165c-4.1-2.5-6.1-6.4-6.1-11.5c0-6.7,1.9-10.9,5.8-12.6v-0.4c-3.8-1.3-7.2-4.3-10.3-9c-3.3-5-5-10.4-5-16.2c0-8.6,3.1-15.8,9.2-21.6c5.9-5.4,12.9-8.1,21-8.1c5.9,0,11.3,1.4,16.4,4.3c5.8,0,12.4-1.4,20-4.3L119.6,104.3L119.6,104.3z M148.8,166.5h-20.3c0.2-2.4,0.4-6.5,0.4-12.2V98.3c0-5.6-0.1-9.5-0.4-11.7h20.3c-0.2,2.3-0.4,6-0.4,11.3v55.2C148.4,159.3,148.5,163.7,148.8,166.5z M147.4,68.7c-2.5,2.6-5.4,3.9-8.7,3.9c-3.5,0-6.5-1.3-8.9-3.9c-2.5-2.6-3.7-5.8-3.7-9.3c0-3.7,1.2-6.9,3.7-9.5s5.4-3.9,8.9-3.9c3.3,0,6.3,1.3,8.7,3.9c2.5,2.6,3.7,5.8,3.7,9.5C151.1,62.9,149.9,66,147.4,68.7z M204,164.1c-4.4,2.4-9.8,3.6-16,3.6c-8.8,0-14.8-3.1-18.2-9.3c-2.5-4.7-3.8-12-3.8-22.1v-32.2h0.2v-0.4l-2.7-0.2c-1.6,0-3.6,0.2-6.1,0.5V86.6h8.8v-7c0-3.3-0.2-6-0.5-8.1h20.9c-0.4,2.3-0.5,4.9-0.5,7.7v7.4h15.7v17.4c-0.6,0-1.7,0-3.3-0.2c-1.6-0.1-3.2-0.2-4.6-0.2H186v33.4c0,8,2.6,12,7.9,12c3.7,0,7.1-1,10.1-3.1L204,164.1L204,164.1z M84,102.3c-7.6,0-11.3,4.4-11.3,13.3c0,8.3,3.8,12.4,11.3,12.4c7.3,0,11-4.2,11-12.6c0-3.5-0.8-6.5-2.5-9C90.5,103.7,87.6,102.3,84,102.3z"/></g></g>
</svg>